<svg width="164" height="54" viewBox="0 0 164 54" fill="none" xmlns="http://www.w3.org/2000/svg">
<path d="M76.8393 37.8868C78.037 37.8868 79.1258 37.6887 80.1329 37.2925C81.1128 36.8962 81.9566 36.2736 82.6643 35.4528C83.372 34.6604 83.9164 33.6415 84.2975 32.4245C84.6786 31.2075 84.8691 29.7925 84.8691 28.1792C84.8691 26.3962 84.6514 24.8679 84.2431 23.6226C83.8076 22.3774 83.2632 21.3868 82.5555 20.5943C81.8477 19.8302 81.0039 19.2642 80.0785 18.9245C79.153 18.5849 78.1731 18.3868 77.1659 18.3868C76.186 18.3868 75.2333 18.5566 74.2534 18.8962C73.2735 19.2358 72.3753 19.8019 71.6131 20.566C70.8509 21.3585 70.2249 22.3491 69.7349 23.5943C69.245 24.8396 69 26.3679 69 28.1792C69 31.3774 69.6805 33.783 71.0687 35.4245C72.4569 37.066 74.3895 37.8868 76.8393 37.8868ZM77.0571 34.5472C76.2132 34.5472 75.5327 34.3491 74.9884 33.9528C74.444 33.5566 74.0357 33.0189 73.7635 32.3962C73.464 31.7736 73.2735 31.0943 73.1646 30.3019C73.0557 29.5094 73.0013 28.7453 73.0013 28.0094C73.0013 27.2453 73.0557 26.4811 73.1918 25.717C73.3279 24.9811 73.5457 24.3019 73.8723 23.7358C74.199 23.1698 74.6073 22.6887 75.1245 22.3208C75.6144 21.9811 76.2405 21.783 76.9754 21.783C77.7375 21.783 78.3908 22.0094 78.908 22.434C79.398 22.8585 79.8063 23.3962 80.1057 24.0189C80.4051 24.6698 80.6228 25.3774 80.7317 26.1415C80.8406 26.9057 80.895 27.6132 80.895 28.2642C80.895 29.0566 80.8134 29.8491 80.7045 30.5849C80.5684 31.3491 80.3506 32.0283 80.0785 32.5943C79.779 33.1887 79.3707 33.6698 78.8808 34.0094C78.3908 34.3774 77.7648 34.5472 77.0571 34.5472Z" fill="#0F1F37"/>
<path d="M92.274 37.9151C93.1178 37.9151 93.9072 37.7736 94.6421 37.434C95.3498 37.0943 96.0031 36.5283 96.5747 35.7358C96.8741 36.3868 97.3096 36.9245 97.9085 37.3208C98.4801 37.717 99.2695 37.9151 100.277 37.9151C102.291 37.9151 103.788 37.1792 104.768 35.6509C105.748 34.1509 106.265 32.1132 106.265 29.5094C106.265 28.4623 106.156 27.3868 105.993 26.2547C105.802 25.1509 105.584 24.1321 105.339 23.1981H101.61C101.828 24.1321 102.046 25.1792 102.236 26.3113C102.427 27.4434 102.536 28.5472 102.536 29.6226C102.536 30.217 102.509 30.8396 102.454 31.4623C102.4 32.0849 102.264 32.6509 102.1 33.1604C101.937 33.6698 101.692 34.066 101.393 34.4057C101.066 34.7453 100.685 34.8868 100.195 34.8868C99.46 34.8868 99.0245 34.6321 98.8884 34.1226C98.7523 33.6132 98.6978 33.0472 98.6978 32.3679V23.1981H94.9143V32.566C94.9143 33.217 94.7238 33.7547 94.3427 34.2075C93.9616 34.6604 93.4989 34.8868 92.9 34.8868C92.1651 34.8868 91.7296 34.6604 91.5663 34.1509C91.4029 33.6415 91.3485 33.0472 91.3485 32.3396V23.1981H87.5377V32.9057C87.5377 34.6038 87.946 35.8774 88.7626 36.6981C89.5792 37.5189 90.7497 37.9151 92.274 37.9151Z" fill="#0F1F37"/>
<path d="M112.994 37.9717C113.593 37.9717 114.219 37.9151 114.873 37.7453C115.526 37.6038 116.043 37.3774 116.479 37.0377L115.662 34.4057C115.363 34.5472 115.063 34.6604 114.791 34.7453C114.491 34.8585 114.219 34.8868 114.002 34.8868C113.484 34.8868 113.13 34.717 112.94 34.3774C112.722 34.0377 112.641 33.4717 112.641 32.6792V17.8774H108.857V32.7075C108.857 33.3868 108.884 34.0377 108.939 34.6604C108.993 35.283 109.184 35.8491 109.456 36.3302C109.728 36.8396 110.136 37.2359 110.681 37.5189C111.225 37.8302 112.014 37.9717 112.994 37.9717Z" fill="#0F1F37"/>
<path d="M125.597 37.8868C126.904 37.8868 128.129 37.717 129.272 37.3774C130.415 37.0377 131.341 36.5849 132.103 36.0189V27.1887H125.761V30.3302H128.51V33.9811C128.156 34.1792 127.748 34.3208 127.258 34.434C126.768 34.5472 126.278 34.6038 125.788 34.6038C124.264 34.6038 123.148 34.0094 122.467 32.8208C121.787 31.6321 121.46 30.0189 121.46 27.9245C121.46 25.9717 121.814 24.4717 122.549 23.3962C123.256 22.3491 124.264 21.8113 125.516 21.8113C126.223 21.8113 126.904 22.0094 127.53 22.3491C128.129 22.6887 128.755 23.283 129.381 24.0755L132.185 21.9245C131.314 20.566 130.279 19.6604 129.081 19.1509C127.884 18.6415 126.713 18.3868 125.57 18.3868C124.617 18.3868 123.665 18.5566 122.685 18.8962C121.705 19.2358 120.834 19.7736 120.072 20.5377C119.31 21.3019 118.684 22.3208 118.194 23.566C117.704 24.8113 117.459 26.3679 117.459 28.1792C117.459 31.434 118.194 33.8679 119.663 35.4811C121.133 37.0943 123.093 37.8868 125.597 37.8868Z" fill="#0F1F37"/>
<path d="M135.095 25.6887V37.5472H138.905V28.6321C138.905 27.8962 139.123 27.2736 139.531 26.8208C139.94 26.3679 140.484 26.1132 141.165 26.1132C141.491 26.1132 141.845 26.1698 142.172 26.283C142.498 26.3962 142.825 26.5094 143.124 26.6226L143.723 23.3113C143.424 23.1415 143.07 23.0283 142.689 22.9151C142.308 22.8302 141.899 22.7736 141.518 22.7736C140.892 22.7736 140.266 23 139.667 23.3962C139.041 23.7925 138.579 24.4151 138.252 25.2358L137.925 23.1981H134.822L135.095 25.6887Z" fill="#0F1F37"/>
<path d="M145.245 23.1981V37.5472H149.083V23.1981H145.245ZM147.15 21.1887C147.749 21.1887 148.266 20.9906 148.675 20.5943C149.056 20.1981 149.273 19.6887 149.273 19.0943C149.273 18.5283 149.056 18.0189 148.675 17.6226C148.266 17.2264 147.749 17 147.15 17C146.497 17 146.007 17.2264 145.626 17.6226C145.245 18.0472 145.054 18.5283 145.054 19.0943C145.054 19.717 145.245 20.1981 145.626 20.5943C146.007 20.9906 146.497 21.1887 147.15 21.1887Z" fill="#0F1F37"/>
<path d="M156.868 38C157.631 38 158.311 37.8302 158.937 37.4906C159.563 37.1509 160.053 36.6698 160.407 36.0755H160.543L160.788 37.5472H164L163.728 34.6321V17.8774H159.971V23.0566C159.726 23 159.454 22.9151 159.182 22.8585C158.883 22.8019 158.556 22.7736 158.175 22.7736C157.086 22.7736 156.106 23 155.29 23.3962C154.446 23.7925 153.738 24.3585 153.194 25.066C152.622 25.8019 152.187 26.6509 151.914 27.6698C151.615 28.6887 151.479 29.8208 151.479 31.0094C151.479 31.8585 151.533 32.7075 151.697 33.5566C151.86 34.4057 152.132 35.1415 152.54 35.7925C152.922 36.4434 153.466 36.9811 154.174 37.3774C154.881 37.8019 155.78 38 156.868 38ZM157.685 35.1132C157.195 35.1132 156.814 35 156.487 34.7453C156.161 34.5189 155.916 34.1792 155.752 33.783C155.562 33.3868 155.426 32.9057 155.371 32.3679C155.29 31.8302 155.262 31.2642 155.262 30.6415C155.262 30.0189 155.29 29.3962 155.399 28.7736C155.507 28.1792 155.671 27.6415 155.916 27.1604C156.133 26.7075 156.46 26.3113 156.868 26.0283C157.249 25.7453 157.739 25.6038 158.338 25.6038C158.665 25.6038 158.992 25.6604 159.264 25.717C159.536 25.8019 159.781 25.8868 159.971 25.9717V33.1038C159.971 33.5849 159.754 34.0377 159.345 34.4623C158.91 34.9151 158.366 35.1132 157.685 35.1132Z" fill="#0F1F37"/>
<g clip-path="url(#clip0_101_30)">
<path d="M0 11.988C0 5.36721 5.36721 0 11.988 0H42.012C48.6328 0 54 5.36721 54 11.988V42.012C54 48.6328 48.6328 54 42.012 54H11.988C5.36721 54 0 48.6328 0 42.012V11.988Z" fill="#0F1F37"/>
<g clip-path="url(#clip1_101_30)">
<path fill-rule="evenodd" clip-rule="evenodd" d="M44.28 44.28V42.2548H38.4212V18.3265C38.4212 16.3447 37.7477 14.5176 36.618 13.0612C38.2528 12.8289 39.5143 11.4205 39.5143 9.7224H37.4893C37.4893 10.4656 36.8847 11.0702 36.1416 11.0702H35.1347C34.9129 11.0702 34.6929 11.0782 34.4751 11.0938C33.1313 10.225 31.5314 9.71997 29.8157 9.71997H24.1832C22.4675 9.71997 20.8676 10.225 19.5239 11.0938C19.306 11.0782 19.0861 11.0702 18.8643 11.0702H17.8574C17.1143 11.0702 16.5097 10.4656 16.5097 9.7224H14.4847C14.4847 11.4205 15.7461 12.8289 17.381 13.0612C16.2512 14.5176 15.5776 16.3447 15.5776 18.3265V28.256C15.5776 32.5362 17.2442 36.5602 20.2704 39.5867C21.3315 40.6479 22.5155 41.5411 23.7899 42.2548H9.71997V44.28H44.28ZM36.3962 37.6136C34.9147 37.1757 33.8303 35.8033 33.8303 34.1816V32.4171H31.8053V34.1816C31.8053 36.9258 33.7884 39.2141 36.3962 39.6923V42.1912C32.4417 41.6917 29.3733 38.3068 29.3733 34.2185V28.487C32.2413 28.156 34.752 26.6343 36.3962 24.4296V37.6136ZM24.1832 11.7452H29.8157C30.3263 11.7452 30.8235 11.8036 31.301 11.9143C29.4504 12.7722 27.9321 14.2299 26.9994 16.0376C26.0667 14.2299 24.5484 12.7722 22.6979 11.9143C23.1754 11.8036 23.6726 11.7452 24.1832 11.7452ZM20.0652 13.1972C23.4227 13.7698 25.9869 16.7003 25.9869 20.2189V22.5706H28.0119V20.2189C28.0119 16.7003 30.5761 13.7698 33.9337 13.1972C35.4341 14.4045 36.3962 16.2551 36.3962 18.3265C36.3962 22.8501 32.7164 26.5303 28.1932 26.5303H25.8056C21.2825 26.5303 17.6026 22.85 17.6026 18.3265C17.6026 16.2551 18.5648 14.4045 20.0652 13.1972ZM17.6026 28.256V24.4296C19.4689 26.9321 22.4512 28.5555 25.8056 28.5555H27.3483V34.2185C27.3483 37.4968 28.9244 40.4136 31.3583 42.2517C23.7513 42.1222 17.6026 35.8942 17.6026 28.256ZM32.045 21.0122C33.0294 21.0122 33.8303 20.2113 33.8303 19.2268C33.8303 18.2423 33.0294 17.4413 32.045 17.4413C31.0606 17.4413 30.2597 18.2423 30.2597 19.2268C30.2597 20.2113 31.0606 21.0122 32.045 21.0122ZM23.7392 19.2268C23.7392 20.2113 22.9383 21.0122 21.9539 21.0122C20.9695 21.0122 20.1686 20.2113 20.1686 19.2268C20.1686 18.2423 20.9695 17.4413 21.9539 17.4413C22.9383 17.4413 23.7392 18.2423 23.7392 19.2268Z" fill="white"/>
</g>
</g>
<defs>
<clipPath id="clip0_101_30">
<rect width="54" height="54" fill="white"/>
</clipPath>
<clipPath id="clip1_101_30">
<rect width="34.56" height="34.56" fill="white" transform="translate(9.71997 9.71997)"/>
</clipPath>
</defs>
</svg>
