<svg width="54" height="54" viewBox="0 0 54 54" fill="none" xmlns="http://www.w3.org/2000/svg">
<g clip-path="url(#clip0_225_146)">
<path d="M0 11.988C0 5.36721 5.36721 0 11.988 0H42.012C48.6328 0 54 5.36721 54 11.988V42.012C54 48.6328 48.6328 54 42.012 54H11.988C5.36721 54 0 48.6328 0 42.012V11.988Z" fill="#0F1F37"/>
<g clip-path="url(#clip1_225_146)">
<path fill-rule="evenodd" clip-rule="evenodd" d="M44.28 44.28V42.2548H38.4213V18.3265C38.4213 16.3447 37.7477 14.5176 36.618 13.0612C38.2529 12.8289 39.5143 11.4206 39.5143 9.72243H37.4893C37.4893 10.4656 36.8847 11.0703 36.1416 11.0703H35.1347C34.9129 11.0703 34.693 11.0782 34.4751 11.0938C33.1314 10.225 31.5315 9.72 29.8158 9.72H24.1832C22.4675 9.72 20.8676 10.225 19.5239 11.0938C19.306 11.0782 19.0861 11.0703 18.8643 11.0703H17.8574C17.1143 11.0703 16.5097 10.4656 16.5097 9.72243H14.4847C14.4847 11.4206 15.7461 12.8289 17.381 13.0612C16.2512 14.5176 15.5777 16.3447 15.5777 18.3265V28.256C15.5777 32.5362 17.2442 36.5602 20.2705 39.5867C21.3316 40.6479 22.5156 41.5412 23.79 42.2548H9.72V44.28H44.28ZM36.3963 37.6137C34.9148 37.1758 33.8303 35.8033 33.8303 34.1817V32.4172H31.8053V34.1817C31.8053 36.9258 33.7884 39.2141 36.3963 39.6923V42.1912C32.4417 41.6918 29.3734 38.3068 29.3734 34.2185V28.487C32.2414 28.156 34.752 26.6343 36.3963 24.4297V37.6137ZM24.1832 11.7452H29.8157C30.3263 11.7452 30.8235 11.8037 31.301 11.9143C29.4505 12.7722 27.9322 14.2299 26.9995 16.0377C26.0667 14.2299 24.5485 12.7722 22.6979 11.9143C23.1754 11.8037 23.6726 11.7452 24.1832 11.7452ZM20.0652 13.1972C23.4228 13.7698 25.987 16.7003 25.987 20.2189V22.5707H28.012V20.2189C28.012 16.7003 30.5761 13.7698 33.9337 13.1972C35.4341 14.4045 36.3963 16.2551 36.3963 18.3265C36.3963 22.8501 32.7164 26.5303 28.1933 26.5303H25.8057C21.2825 26.5303 17.6027 22.8501 17.6027 18.3265C17.6027 16.2551 18.5648 14.4045 20.0652 13.1972ZM17.6027 28.256V24.4297C19.4689 26.9321 22.4512 28.5555 25.8057 28.5555H27.3484V34.2185C27.3484 37.4968 28.9244 40.4136 31.3583 42.2518C23.7513 42.1222 17.6027 35.8942 17.6027 28.256ZM32.045 21.0122C33.0294 21.0122 33.8303 20.2113 33.8303 19.2268C33.8303 18.2423 33.0294 17.4413 32.045 17.4413C31.0606 17.4413 30.2597 18.2423 30.2597 19.2268C30.2597 20.2113 31.0606 21.0122 32.045 21.0122ZM23.7392 19.2268C23.7392 20.2113 22.9383 21.0122 21.9539 21.0122C20.9695 21.0122 20.1686 20.2113 20.1686 19.2268C20.1686 18.2423 20.9695 17.4413 21.9539 17.4413C22.9383 17.4413 23.7392 18.2423 23.7392 19.2268Z" fill="white"/>
</g>
</g>
<defs>
<clipPath id="clip0_225_146">
<rect width="54" height="54" fill="white"/>
</clipPath>
<clipPath id="clip1_225_146">
<rect width="34.56" height="34.56" fill="white" transform="translate(9.72 9.72)"/>
</clipPath>
</defs>
</svg>
