<svg width="52" height="52" viewBox="0 0 52 52" fill="none" xmlns="http://www.w3.org/2000/svg">
<g clip-path="url(#clip0_200_194)">
<path d="M0 11.544C0 5.16843 5.16843 0 11.544 0H40.456C46.8316 0 52 5.16843 52 11.544V40.456C52 46.8316 46.8316 52 40.456 52H11.544C5.16843 52 0 46.8316 0 40.456V11.544Z" fill="url(#paint0_linear_200_194)"/>
<g clip-path="url(#clip1_200_194)">
<path d="M34.32 32.6561C37.0772 32.6561 39.312 34.8909 39.312 37.6481C39.312 40.4054 37.0772 42.6401 34.32 42.6401C31.5627 42.6401 29.328 40.4054 29.328 37.6481C29.328 34.8909 31.5627 32.6561 34.32 32.6561ZM17.68 26.0001C21.3574 26.0001 24.336 28.9787 24.336 32.6561C24.336 36.3335 21.3574 39.3121 17.68 39.3121C14.0025 39.3121 11.024 36.3335 11.024 32.6561C11.024 28.9787 14.0025 26.0001 17.68 26.0001ZM31.824 9.36011C36.8792 9.36011 40.976 13.4569 40.976 18.5121C40.976 23.5673 36.8792 27.6641 31.824 27.6641C26.7688 27.6641 22.672 23.5673 22.672 18.5121C22.672 13.4569 26.7688 9.36011 31.824 9.36011Z" fill="white"/>
</g>
</g>
<defs>
<linearGradient id="paint0_linear_200_194" x1="45.812" y1="47.164" x2="3.64" y2="3.016" gradientUnits="userSpaceOnUse">
<stop stop-color="#945FFE"/>
<stop offset="1" stop-color="#0079FF"/>
</linearGradient>
<clipPath id="clip0_200_194">
<rect width="52" height="52" fill="white"/>
</clipPath>
<clipPath id="clip1_200_194">
<rect width="33.28" height="33.28" fill="white" transform="translate(9.35999 9.36011)"/>
</clipPath>
</defs>
</svg>
