<svg width="53" height="52" viewBox="0 0 53 52" fill="none" xmlns="http://www.w3.org/2000/svg">
<g clip-path="url(#clip0_247_68)">
<path d="M0.333313 11.544C0.333313 5.16843 5.50174 0 11.8773 0H40.7893C47.1649 0 52.3333 5.16843 52.3333 11.544V40.456C52.3333 46.8316 47.1649 52 40.7893 52H11.8773C5.50174 52 0.333313 46.8316 0.333313 40.456V11.544Z" fill="url(#paint0_linear_247_68)"/>
<g clip-path="url(#clip1_247_68)">
<path d="M26.3333 42.6401C17.143 42.6401 9.69331 35.1904 9.69331 26.0001C9.69331 16.8098 17.143 9.36011 26.3333 9.36011C35.5236 9.36011 42.9733 16.8098 42.9733 26.0001C42.9733 35.1904 35.5236 42.6401 26.3333 42.6401ZM36.908 32.5762V32.4015C36.908 30.8673 36.908 30.1668 35.8231 29.5461C35.4744 29.3484 35.1162 29.1679 34.7498 29.0053C34.1391 28.7274 33.7348 28.546 33.189 27.7473C33.1238 27.6525 33.0595 27.5571 32.996 27.4611C32.4219 26.5875 32.0076 25.9585 30.4301 26.2081C27.3267 26.7007 27.0971 27.2464 26.9606 28.1683L26.939 28.3197C26.7377 29.6676 26.7011 30.1202 27.2635 30.7109C29.3684 32.919 30.6298 34.5115 31.0125 35.4433C31.1988 35.8976 31.6781 37.2737 31.3486 38.6349C33.3684 37.8303 35.1663 36.554 36.5919 34.9125C36.7749 34.2902 36.908 33.5147 36.908 32.5762V32.5762ZM26.3333 12.4102C22.4778 12.4102 18.9951 14.0176 16.5224 16.5968C16.8169 16.8015 17.0732 17.0894 17.2495 17.4854C17.589 18.2459 17.589 19.0296 17.589 19.7235C17.589 20.2693 17.589 20.7885 17.7637 21.1629C18.0033 21.6754 19.0383 21.895 19.9519 22.0847C20.2797 22.1546 20.6158 22.2245 20.922 22.3094C21.764 22.5423 22.4163 23.2994 22.9371 23.9068C23.1534 24.1581 23.4746 24.5291 23.636 24.6223C23.7192 24.5624 23.9871 24.2712 24.1185 23.7936C24.2217 23.4276 24.1917 23.1047 24.0436 22.9284C23.1118 21.8301 23.1634 19.7168 23.4513 18.9364C23.9039 17.7067 25.3183 17.7983 26.3533 17.8648C26.7393 17.8898 27.1021 17.9147 27.375 17.8798C28.41 17.75 28.7295 16.1742 28.9541 15.8663C29.44 15.2007 30.9276 14.1974 31.8495 13.5783C30.1131 12.8062 28.2336 12.4082 26.3333 12.4102V12.4102Z" fill="white"/>
</g>
</g>
<defs>
<linearGradient id="paint0_linear_247_68" x1="46.1453" y1="47.164" x2="3.97331" y2="3.016" gradientUnits="userSpaceOnUse">
<stop stop-color="#945FFE"/>
<stop offset="1" stop-color="#0079FF"/>
</linearGradient>
<clipPath id="clip0_247_68">
<rect width="52" height="52" fill="white" transform="translate(0.333313)"/>
</clipPath>
<clipPath id="clip1_247_68">
<rect width="33.28" height="33.28" fill="white" transform="translate(9.69331 9.36011)"/>
</clipPath>
</defs>
</svg>
