<svg width="52" height="52" viewBox="0 0 52 52" fill="none" xmlns="http://www.w3.org/2000/svg">
<g clip-path="url(#clip0_247_86)">
<path d="M0 11.544C0 5.16843 5.16843 0 11.544 0H40.456C46.8316 0 52 5.16843 52 11.544V40.456C52 46.8316 46.8316 52 40.456 52H11.544C5.16843 52 0 46.8316 0 40.456V11.544Z" fill="url(#paint0_linear_247_86)"/>
<g clip-path="url(#clip1_247_86)">
<path d="M9.35999 31.8225C9.35999 32.7346 9.54795 33.5788 9.92388 34.3552C10.2998 35.1315 10.8204 35.809 11.4856 36.3877C12.1509 36.9663 12.9232 37.4157 13.8025 37.7361C14.6819 38.0565 15.6283 38.2166 16.6416 38.2166C17.6518 38.2166 18.5965 38.0565 19.4759 37.7361C20.3552 37.4157 21.1259 36.9663 21.7879 36.3877C22.4498 35.809 22.9671 35.1315 23.3398 34.3552C23.7125 33.5788 23.8988 32.7346 23.8988 31.8225V28.9589C24.2159 28.851 24.5534 28.7676 24.9114 28.7088C25.2693 28.65 25.6346 28.6205 26.0073 28.6205C26.8115 28.6205 27.5094 28.717 28.1011 28.9098V31.8372C28.1011 32.746 28.2874 33.5886 28.66 34.365C29.0327 35.1413 29.5508 35.8188 30.2144 36.3975C30.8781 36.9761 31.6488 37.4264 32.5265 37.7484C33.4042 38.0704 34.3482 38.2314 35.3583 38.2314C36.375 38.2314 37.3238 38.0704 38.2047 37.7484C39.0857 37.4264 39.8589 36.9761 40.5241 36.3975C41.1893 35.8188 41.7082 35.1413 42.0808 34.365C42.4536 33.5886 42.64 32.746 42.64 31.8372C42.64 31.3894 42.5934 30.926 42.5002 30.4471C42.407 29.9682 42.2493 29.4639 42.027 28.9344L36.9175 16.8031C36.5121 15.8224 35.9205 15.0706 35.1426 14.5475C34.3645 14.0245 33.4541 13.763 32.4113 13.763C31.5384 13.763 30.7792 13.9411 30.1337 14.2974C29.488 14.6538 28.9878 15.1531 28.6331 15.7955C28.2784 16.4378 28.1011 17.1889 28.1011 18.0486V19.0244C27.784 18.9329 27.4489 18.8659 27.0959 18.8234C26.7428 18.7809 26.3799 18.7596 26.0073 18.7596C25.6477 18.7596 25.2898 18.7858 24.9334 18.8381C24.5771 18.8904 24.2322 18.9656 23.8988 19.0636V18.0339C23.8988 17.1774 23.7223 16.4272 23.3692 15.7832C23.0162 15.1392 22.5168 14.6399 21.8712 14.2852C21.2256 13.9305 20.4664 13.7532 19.5935 13.7532C18.554 13.7532 17.6444 14.0147 16.8648 14.5377C16.0851 15.0608 15.491 15.811 15.0823 16.7884L9.97291 28.9246C9.75389 29.4541 9.59698 29.9576 9.50218 30.4348C9.40738 30.9121 9.35999 31.3747 9.35999 31.8225ZM12.1402 31.8225C12.1402 31.0837 12.3356 30.4365 12.7262 29.8807C13.1169 29.325 13.6505 28.891 14.3272 28.5789C15.0039 28.2667 15.7754 28.1106 16.6416 28.1106C17.5047 28.1106 18.2786 28.2667 18.9634 28.5789C19.6483 28.891 20.1885 29.325 20.584 29.8807C20.9796 30.4365 21.1774 31.0837 21.1774 31.8225C21.1774 32.558 20.9796 33.2037 20.584 33.7594C20.1885 34.3151 19.6483 34.7483 18.9634 35.0588C18.2786 35.3694 17.5047 35.5246 16.6416 35.5246C15.7754 35.5246 15.0039 35.3694 14.3272 35.0588C13.6505 34.7483 13.1169 34.3151 12.7262 33.7594C12.3356 33.2037 12.1402 32.558 12.1402 31.8225ZM30.8274 31.8372C30.8274 31.0952 31.0252 30.4463 31.4207 29.8905C31.8162 29.3348 32.3556 28.9009 33.0389 28.5887C33.7221 28.2765 34.4952 28.1204 35.3583 28.1204C36.2246 28.1204 36.9977 28.2765 37.6777 28.5887C38.3576 28.9009 38.892 29.3348 39.281 29.8905C39.67 30.4463 39.8645 31.0952 39.8645 31.8372C39.8645 32.5695 39.67 33.2143 39.281 33.7716C38.892 34.329 38.3576 34.7621 37.6777 35.0711C36.9977 35.38 36.2246 35.5344 35.3583 35.5344C34.4952 35.5344 33.7221 35.38 33.0389 35.0711C32.3556 34.7621 31.8162 34.329 31.4207 33.7716C31.0252 33.2143 30.8274 32.5695 30.8274 31.8372ZM23.8939 25.1047V22.9325C24.5771 22.7265 25.2816 22.6236 26.0073 22.6236C26.3799 22.6236 26.7428 22.6448 27.0959 22.6873C27.4489 22.7298 27.784 22.7968 28.1011 22.8884V25.0557C27.5094 24.8628 26.8115 24.7664 26.0073 24.7664C25.6314 24.7664 25.2636 24.7966 24.904 24.8571C24.5444 24.9176 24.2077 25.0001 23.8939 25.1047Z" fill="white"/>
</g>
</g>
<defs>
<linearGradient id="paint0_linear_247_86" x1="45.812" y1="47.164" x2="3.64" y2="3.016" gradientUnits="userSpaceOnUse">
<stop stop-color="#945FFE"/>
<stop offset="1" stop-color="#0079FF"/>
</linearGradient>
<clipPath id="clip0_247_86">
<rect width="52" height="52" fill="white"/>
</clipPath>
<clipPath id="clip1_247_86">
<rect width="33.28" height="33.28" fill="white" transform="translate(9.35999 9.36011)"/>
</clipPath>
</defs>
</svg>
